#!OML:ASF E:\Steps\Project 1\Capture day 1\Session 2\Subject.ASF
:FULLY-SPECIFIED
:DEGREES
3190
root 8.00313 16.7827 4.80805 54.0276 14.8944 25.0796
lowerback -25.4867 -10.817 3.58942
upperback -1.6148 -15.5528 1.75645
thorax 11.6263 -7.13426 -5.30687
lowerneck -8.68155 2.31637 -3.23263
upperneck 19.0342 3.62066 0.1423
head 7.19837 1.49692 0.895052
rclavicle 4.6118e-014 9.14409e-015
rhumerus -43.5838 -14.7207 -60.621
rradius 28.4491
rwrist 4.73331
rhand 0.0382527 -780.495
rfingers 7.12502
rthumb 25.627 991.21
lclavicle 4.6118e-014 9.14409e-015
lhumerus 24.8801 -29.5144 62.7288
lradius 45.0915
lwrist -1.7681
lhand -19.9929 -13.9665
lfingers 7.12502
lthumb 6.34664 -344.082
rfemur -41.439 5.17516 -16.8409
rtibia -0.810901
rfoot 330.257 -42.2534
rtoes 23.825
lfemur -6.72962 -3.6962 -12.7101
ltibia 40.3273
lfoot 371.808 8.72692
ltoes -32.0496
3191
root 7.99403 16.7867 4.80978 54.1055 14.6252 25.3042
lowerback -25.5081 -10.8848 3.22812
upperback -1.63865 -15.5395 1.75385
thorax 11.7051 -7.14069 -5.13182
lowerneck -8.66543 2.25019 -3.34524
upperneck 18.9423 3.51174 0.323579
head 7.16156 1.45489 0.961712
rclavicle -6.36111e-014 1.59028e-015
rhumerus -43.8359 -14.6685 -60.6259
rradius 28.3214
rwrist 4.3185
rhand 0.780531 -780.265
rfingers 7.12502
rthumb 26.3378 991.544
lclavicle -6.36111e-014 1.59028e-015
lhumerus 25.3024 -29.7617 62.2288
lradius 45.7518
lwrist -1.83939
lhand -20.1496 -13.5475
lfingers 7.12502
lthumb 6.19535 -343.658
rfemur -41.5688 5.62815 -17.6886
rtibia -0.760704
rfoot 329.364 -42.6049
rtoes 24.8105
lfemur -6.4412 -3.64354 -12.9724
ltibia 41.2496
lfoot 372.368 8.84168
ltoes -32.672
3192
root 7.98848 16.7902 4.8108 54.0865 14.6326 25.2772
lowerback -25.5078 -10.8989 3.27741
upperback -1.65027 -15.5826 1.84725
thorax 11.7043 -7.16078 -5.06934
lowerneck -8.81128 2.31368 -2.85312
upperneck 18.9946 3.65426 -0.346513
head 7.22591 1.49677 0.678824
rclavicle 3.29983e-014 1.59028e-015
rhumerus -43.9792 -14.6175 -60.5965
rradius 28.0586
rwrist 4.2802
rhand 1.05256 -779.91
rfingers 7.12502
rthumb 26.5982 991.938
lclavicle 3.29983e-014 1.59028e-015
lhumerus 25.4336 -29.8059 62.1124
lradius 46.3523
lwrist -1.99437
lhand -19.9832 -13.4741
lfingers 7.12502
lthumb 6.35602 -343.589
rfemur -41.5987 5.36075 -17.3989
rtibia -0.588851
rfoot 329.259 -42.0728
rtoes 25.5159
lfemur -6.14592 -3.54204 -12.8193
ltibia 42.0895
lfoot 372.716 9.15138
ltoes -31.3671
3193
root 7.98546 16.7934 4.81456 54.0502 14.7492 25.1141
lowerback -25.5512 -10.8825 3.52957
upperback -1.71074 -15.6474 2.00025
thorax 11.6332 -7.18781 -5.0512
lowerneck -8.63647 2.27823 -2.84486
upperneck 18.9196 3.61473 -0.445905
head 7.17333 1.47195 0.638548
rclavicle -9.93923e-015 -5.88403e-014
rhumerus -44.099 -14.7102 -60.3954
rradius 27.7163
rwrist 4.60204
rhand 0.767864 -780.078
rfingers 7.12502
rthumb 26.3256 991.729
lclavicle -9.93923e-015 -5.88403e-014
lhumerus 25.2205 -29.726 62.3903
lradius 46.8378
lwrist -2.21062
lhand -19.9694 -14.0448
lfingers 7.12502
lthumb 6.36935 -344.161
rfemur -41.6695 4.61381 -16.5527
rtibia -0.317996
rfoot 329.9 -41.1908
rtoes 24.9552
lfemur -5.84044 -3.34949 -12.4875
ltibia 42.7335
lfoot 373.075 9.4097
ltoes -30.6331
3194
root 7.9824 16.799 4.82152 53.9526 14.7519 24.9792
lowerback -25.467 -10.8748 3.72223
upperback -1.84101 -15.6878 2.07935
thorax 11.4084 -7.21982 -5.03828
lowerneck -8.24246 2.21409 -3.2027
upperneck 18.7781 3.47765 0.00725097
head 7.04324 1.42506 0.824884
rclavicle -6.91771e-014 -3.18055e-014
rhumerus -44.3355 -14.9362 -60.1023
rradius 27.4459
rwrist 5.28572
rhand 0.655805 -780.268
rfingers 7.12502
rthumb 26.2184 991.523
lclavicle -6.91771e-014 -3.18055e-014
lhumerus 24.8071 -29.6513 62.5388
lradius 47.3305
lwrist -2.29648
lhand -20.1678 -14.9757
lfingers 7.12502
lthumb 6.17785 -345.086
rfemur -41.6848 4.05221 -15.9213
rtibia -0.139521
rfoot 330.513 -40.4234
rtoes 24.0602
lfemur -5.45162 -3.13468 -12.3143
ltibia 43.2765
lfoot 373.339 9.46233
ltoes -31.1257
3195
root 7.97637 16.8043 4.82998 53.8056 14.6041 24.9621
lowerback -25.3415 -10.907 3.66559
upperback -1.88676 -15.7072 2.08904
thorax 11.3059 -7.24233 -4.97472
lowerneck -8.09944 2.09074 -3.47527
upperneck 18.7419 3.27685 0.365651
head 6.9978 1.34208 0.966435
rclavicle 1.23246e-013 -4.05521e-014
rhumerus -44.3979 -15.1364 -59.9482
rradius 27.2246
rwrist 5.71275
rhand 0.866909 -780.107
rfingers 7.12502
rthumb 26.4205 991.714
lclavicle 1.23246e-013 -4.05521e-014
lhumerus 24.729 -29.5977 62.3076
lradius 47.6993
lwrist -2.06321
lhand -20.3355 -15.4898
lfingers 7.12502
lthumb 6.01589 -345.595
rfemur -41.5789 3.99437 -15.8133
rtibia -0.0882796
rfoot 330.412 -39.9353
rtoes 23.9617
lfemur -5.10188 -2.9928 -12.3895
ltibia 43.924
lfoot 373.255 9.58562
ltoes -30.9789
